<?xml version="1.0" encoding="utf-8"?>
<!-- Generator: Adobe Illustrator 23.0.1, SVG Export Plug-In . SVG Version: 6.00 Build 0)  -->
<svg version="1.1" id="Layer_1" xmlns="http://www.w3.org/2000/svg" xmlns:xlink="http://www.w3.org/1999/xlink" x="0px" y="0px"
	 viewBox="0 0 72 107.8" style="enable-background:new 0 0 72 107.8;" xml:space="preserve">
<style type="text/css">
	.st0{fill:#FFFFFF;}
</style>
<title>Asset 6vertical</title>
<g>
	<g id="Layer_1-2">
		<polygon class="st0" points="0,0 0,8 64,8 64,32 16,32 16,40 64,40 64,64 0,64 0,72 72,72 72,0 		"/>
		<polygon class="st0" points="56,48 8,48 8,24 56,24 56,16 0,16 0,56 56,56 		"/>
		<path class="st0" d="M15.3,90.9c-0.6-1-1.5-1.7-2.6-2.1c-0.6-0.2-1.1-0.3-1.7-0.3c-1,0-1.9,0.2-2.8,0.6c-0.8,0.4-1.4,1-1.9,1.7
			c-0.5,0.8-0.8,1.6-1,2.5C5.1,94.3,5,95.2,5,96.2c0,0.9,0.1,1.8,0.3,2.7c0.2,0.8,0.5,1.7,1,2.4c0.5,0.7,1.1,1.3,1.9,1.7
			c0.9,0.5,1.8,0.7,2.8,0.6c1.3,0.1,2.6-0.4,3.5-1.4c0.7-0.7,1.2-1.6,1.4-2.6h4.8c-0.1,1-0.4,1.9-0.8,2.8c-0.5,1.1-1.2,2.1-2.1,2.9
			c-0.9,0.8-1.9,1.4-3,1.8c-1.2,0.4-2.5,0.6-3.8,0.6c-1.6,0-3.2-0.3-4.6-0.9c-1.3-0.6-2.5-1.4-3.5-2.5c-1-1.1-1.7-2.3-2.2-3.7
			c-0.5-1.5-0.8-3-0.8-4.5c0-1.6,0.2-3.2,0.8-4.7c0.5-1.4,1.2-2.6,2.2-3.7c1-1.1,2.1-1.9,3.5-2.5c1.5-0.6,3-0.9,4.6-0.9
			c1.2,0,2.4,0.2,3.5,0.5c1.1,0.3,2.1,0.9,2.9,1.6c0.9,0.7,1.6,1.6,2.1,2.5c0.6,1.1,0.9,2.2,1.1,3.4h-4.8
			C15.8,91.9,15.6,91.3,15.3,90.9z"/>
		<path class="st0" d="M30.6,94.2c0.5,0,1-0.2,1.5-0.4c0.4-0.2,0.8-0.5,1.2-0.8c0.3-0.4,0.5-1,0.5-1.5c0.1-0.8-0.3-1.6-0.9-2.2
			c-0.6-0.5-1.4-0.8-2.2-0.8c-1-0.1-1.9,0.4-2.5,1.1c-0.6,0.8-0.9,1.8-0.8,2.8H23c0-1.1,0.2-2.1,0.6-3.1c0.3-0.9,0.9-1.7,1.5-2.4
			c0.7-0.7,1.5-1.2,2.4-1.6c1-0.4,2-0.6,3.1-0.6c0.9,0,1.8,0.1,2.6,0.4c0.9,0.3,1.6,0.6,2.4,1.2c0.7,0.5,1.3,1.2,1.7,1.9
			c0.5,0.8,0.7,1.7,0.7,2.6c0,1-0.2,2-0.8,2.8c-0.5,0.8-1.4,1.4-2.3,1.7v0.1c1.1,0.2,2.1,0.8,2.8,1.8c0.7,0.9,1,2.1,1,3.2
			c0,1.1-0.2,2.1-0.7,3.1c-0.4,0.9-1,1.6-1.8,2.2c-0.8,0.6-1.7,1.1-2.6,1.4c-1,0.3-2,0.5-3.1,0.5c-1.1,0-2.3-0.2-3.4-0.5
			c-1-0.3-1.8-0.8-2.6-1.6c-0.7-0.7-1.3-1.6-1.6-2.5c-0.4-1.1-0.6-2.2-0.5-3.4h4.2c0,0.6,0.1,1.1,0.3,1.7c0.2,0.5,0.4,1,0.7,1.4
			c0.3,0.4,0.7,0.7,1.2,0.9c0.5,0.2,1.1,0.4,1.7,0.3c0.9,0,1.8-0.3,2.5-0.9c1.1-1.2,1.4-3,0.5-4.4c-0.3-0.4-0.7-0.8-1.2-1
			c-0.5-0.2-1.1-0.3-1.6-0.3c-0.6,0-1.2,0-1.7,0v-3.1C29.6,94.3,30.1,94.3,30.6,94.2z"/>
		<path class="st0" d="M46,102.4v4.8h-4.9v-4.8H46z"/>
		<path class="st0" d="M49.3,96.1c0-0.9,0.3-1.8,0.8-2.6c0.4-0.7,1-1.3,1.8-1.7c0.7-0.4,1.6-0.7,2.4-0.9c0.9-0.2,1.8-0.3,2.7-0.3
			c0.8,0,1.7,0.1,2.5,0.2c0.8,0.1,1.6,0.3,2.3,0.7c0.7,0.3,1.3,0.8,1.7,1.4c0.5,0.7,0.7,1.5,0.6,2.4v8.4c0,0.7,0,1.4,0.1,2.1
			c0,0.5,0.2,1,0.4,1.5h-4.5c-0.1-0.3-0.2-0.5-0.2-0.8c-0.1-0.3-0.1-0.5-0.1-0.8c-0.7,0.7-1.5,1.3-2.5,1.5c-1,0.3-1.9,0.4-2.9,0.4
			c-0.7,0-1.5-0.1-2.2-0.3c-0.6-0.2-1.2-0.5-1.8-0.9c-0.5-0.4-0.9-0.9-1.2-1.5c-0.3-0.7-0.4-1.4-0.4-2.2c0-0.8,0.1-1.6,0.5-2.3
			c0.3-0.6,0.7-1.1,1.2-1.4c0.5-0.4,1.1-0.6,1.8-0.8c0.7-0.2,1.3-0.3,2-0.4s1.3-0.2,2-0.2c0.6,0,1.1-0.1,1.7-0.3
			c0.4-0.1,0.8-0.3,1.2-0.6c0.3-0.3,0.4-0.6,0.4-1c0-0.4-0.1-0.8-0.2-1.1c-0.2-0.3-0.4-0.5-0.6-0.7c-0.3-0.2-0.6-0.3-0.9-0.3
			c-0.4-0.1-0.7-0.1-1.1-0.1c-0.7,0-1.5,0.2-2.1,0.6c-0.5,0.5-0.9,1.1-0.9,1.9L49.3,96.1z M59.6,99.3c-0.2,0.2-0.4,0.3-0.7,0.4
			c-0.3,0.1-0.6,0.2-0.9,0.3c-0.3,0.1-0.7,0.1-1,0.2l-1.1,0.2c-0.3,0.1-0.7,0.1-1,0.2c-0.3,0.1-0.6,0.2-0.8,0.4
			c-0.2,0.2-0.4,0.4-0.6,0.7c-0.2,0.3-0.2,0.7-0.2,1c0,0.3,0.1,0.7,0.2,1c0.1,0.3,0.3,0.5,0.6,0.6c0.3,0.2,0.6,0.3,0.9,0.3
			c0.3,0.1,0.7,0.1,1,0.1c0.7,0,1.4-0.1,2-0.4c0.4-0.3,0.8-0.6,1.1-1.1c0.2-0.4,0.4-0.8,0.4-1.2c0-0.3,0.1-0.7,0.1-1L59.6,99.3z"/>
		<path class="st0" d="M67.5,88.6v-3.7H72v3.7L67.5,88.6z M72,91.1v16.2h-4.5V91.1H72z"/>
	</g>
</g>
</svg>
